<svg xmlns="http://www.w3.org/2000/svg" version="1.1" xmlns:xlink="http://www.w3.org/1999/xlink" width="2000"
     height="2250" viewBox="0 0 2000 2250">
    <g transform="matrix(1,0,0,1,0.00014687500004129106,0)">
        <svg viewBox="0 0 320 360" data-background-color="#046380" preserveAspectRatio="xMidYMid meet" height="2250"
             width="2000" xmlns="http://www.w3.org/2000/svg" xmlns:xlink="http://www.w3.org/1999/xlink">
            <g id="tight-bounds" transform="matrix(1,0,0,1,0.000023499999997511622,0)">
                <svg viewBox="0 0 320 360" height="360" width="320">
                    <g>
                        <svg></svg>
                    </g>
                    <g>
                        <svg viewBox="0 0 320 360" height="360" width="320">
                            <g>
                                <path transform="translate(-74.99272,-51.79039) scale(4.65793,4.65793)"
                                      d="M20.6 59.9l0.8 1-0.4-1.3c-0.1-0.6-0.8 0.1-0.4 0.3M21.5 59.3c0.3 0.5 0.6 1 0.6 1.5 0 0.7 0.6 1 1.1 1.2-0.7-0.8-1.1-3-1.7-2.7M59.9 16.9c1.7 0 3.3-0.2 5.1 0.2 4.4 1.1 8.1 3.3 10.6 6.4l7 11.2c0.3 2.8 0.9 5.9 0.8 9.3 0.7 0 0.6-1 1.4-1.2-0.8 2-1.2 4.5-1.4 7.4-0.5-1.6 0-4 0.1-5.3-0.7 1.1-1.1 0.3-1.1-0.2 0.1-0.8-0.3-0.7-0.6-1-1.1-1-1.8-2.1-2.6-3.8 0.5-1.3 0.6-3.2-1-4.2-0.5-0.3-1.1-0.8-1.4-1.6-0.4-1.1-1.1-2.4-0.9-4.1 0.1-0.5-1.5 1.1-2.4 0.4-3.9-2.7-7.8-5.8-12.5-8.4-2.5 0-4.3-0.9-5.2-2-0.8-1-0.2-2.3 1-2.4 0.7 0 1.5-0.2 2.1 0.2 0.1-0.4 0.5-0.9 1-0.9M50 14.6l0.2 0.1c1 0.2 1.5 1.6 2.6 1.1 0 0.7 0.1 1.4-0.1 1.9-0.3 0.8-1.2 0.8-1.9 0.8-6.7-0.4-10.6 2.4-14.7 4.8-1.1 0.7-2.3 1.2-3.2 2.1-4.3 4-9 7.7-10.1 15.1l-0.9 8.2c-0.1 0.9-1.1 1.8-0.9 2.9l0.7 4.9c-0.7-0.7-1.1 0.2-0.9 0.6 0.1 0.3 0.5 1.3 1.1 0.4 0.8 1.5 1.6 4.4 2.7 5.7 3.4 4 7.8 7.6 11.4 11.2 0.9-0.2 1.6-0.2 1.8-0.8 0.3 0.6-0.3 1.2-0.8 1.3 1.6 1 3.4 1.9 5.8 2.1 3.1 0.2 6 0.7 8.7 1.4 1.4-0.4 2.8-0.6 4.3-0.7 0.5 0 0.8-0.8 1.4-1l0.1-1c0.6 0.9 0.5-0.3 0.1-0.9 0.7 0.6 0.9 1.1 1.2 1.5 0-0.3 0.8-1.4 0.8-0.1l0.2-1.3c0.3-0.2 0.4 1.1 0.7 0.2 0.3-0.9 0.9-0.2 1.5-0.5-0.2 0.4-0.1 1.2 0.6 0.7l0.8-0.7c0.5 1.2 1.3 0.7 1.7 0.5 4.4-2.8 8.8-6.1 13-9.4l-0.1 1.3 0.5-1.6c0.5 0.5 0.9 0.1 1.1-0.2 0.6-1 1.4-2 2.7-2.9-1.6 4.3-3.5 7.7-5.9 10.5l-1 1.2c0 0.7-0.2 1.6-1 1.7-0.4 0.1-1.2-0.2-1.8 0.4-0.3 0.4 0.7 1.2-0.1 0.6-0.7-0.5-1.4 0-2.2 0.2-0.6 0.2 0.4 0.8 0.6 1.2 0.2 0.4 0.4 0.8 0.3 1.3l-1.1-1.2c-1.3 0.7-2.1 2-3.2 3-0.5 0.4-0.3 1.1-0.3 1.7-0.7 0-1.5-0.2-1.9 0.2-0.3 0.4-0.2 1-0.2 1.6-1-0.1-1.1-1.6-2-1.3-0.9 0.2-1.9 0.3-2.7 0.8 0.6 1.2-1 0.5-0.8 0.7-1.5-0.9-2.8-1.6-4.4-1-3.4-1.1-7.6-0.6-10.7-0.2 0-0.5 0.1-1-0.1-1.1-0.2 0.5-0.8 0.3-0.7 0.3-1.9-1.3-3.8-2.1-5.8-3.2-1.8 0.2-3.5-0.7-4-1.2-1.4-1.3-3-0.6-4.3-0.9-2.8-0.7-3.8-3.6-4.1-5.6-0.2-1-1-1.4-1.3-1.3-1.3-4.2-3.3-8-4.9-11.9-0.4-1-0.3-2-0.3-3.1 0.5 0.2 1 0.1 0.9-0.6-0.5-3.3-1.7-5.8-3-8.2 0.7-3.4 0.8-7.4 2.4-10.4 1.4-2.7 4-4.1 5.8-6.4 0.6-0.8 0.6-1.9 1.2-2.6 2-2 4-4.1 6.2-5.9 1-0.8 2.2 0 3.7-0.3 0.5-1.8 2.5-3.4 4.4-2.9 0.8 0.2 2.4-1.9 2.9-2.1 0.8-0.3 0.4 0.8 0.4 1.5 1.9-1.5 4.5-2.3 6.9-3.2"
                                      fill="#ffffff" fill-rule="nonzero" stroke="none" stroke-width="1"
                                      stroke-linecap="butt" stroke-linejoin="miter" stroke-miterlimit="10"
                                      stroke-dasharray="" stroke-dashoffset="0" style="mix-blend-mode: normal"></path>
                            </g>
                            <g transform="matrix(1,0,0,1,64,121.05380304179073)">
                                <svg viewBox="0 0 192 117.89239391641854" height="117.89239391641854" width="192">
                                    <g>
                                        <svg viewBox="0 0 192 117.89239391641854" height="117.89239391641854"
                                             width="192">
                                            <g>
                                                <svg viewBox="0 0 192 117.89239391641854" height="117.89239391641854"
                                                     width="192">
                                                    <g transform="matrix(1,0,0,1,0,70.060565996717)">
                                                        <svg viewBox="0 0 192 47.83182791970154"
                                                             height="47.83182791970154" width="192">
                                                            <g id="textblocktransform">
                                                                <svg viewBox="0 0 192 47.83182791970154"
                                                                     height="47.83182791970154" width="192"
                                                                     id="textblock">
                                                                    <g>
                                                                        <svg viewBox="0 0 192 27.116717001243558"
                                                                             height="27.116717001243558" width="192">
                                                                            <g transform="matrix(1,0,0,1,0,0)">
                                                                                <svg width="192"
                                                                                     viewBox="0.24 -37.3 274.83 38.809999999999995"
                                                                                     height="27.116717001243558"
                                                                                     data-palette-color="#ffffff">
                                                                                    <path d="M18.16-37.26L18.16-37.26Q18.21-37.11 18.63-36.91 19.04-36.72 19.14-36.72L19.14-36.72Q19.82-36.82 19.95-36.69 20.07-36.57 20.21-36.43L20.21-36.43Q20.41-36.52 20.53-36.65 20.65-36.77 20.9-36.77L20.9-36.77Q21.14-36.62 21.22-36.35 21.29-36.08 21.44-35.84L21.44-35.84Q21.39-35.21 21.44-35.03 21.48-34.86 21.48-34.67L21.48-34.67Q21.48-33.94 21.04-33.08 20.61-32.23 20.41-31.49L20.41-31.49Q20.17-31.25 20.09-30.96 20.02-30.66 19.82-30.42L19.82-30.42Q19.68-29.93 19.38-29.57 19.09-29.2 18.99-28.71L18.99-28.71Q18.95-28.66 18.77-28.37 18.6-28.08 18.41-27.73 18.21-27.39 18.04-27.05 17.87-26.71 17.82-26.61L17.82-26.61Q17.68-26.37 17.6-26.15 17.53-25.93 17.38-25.73L17.38-25.73Q17.29-25.44 17.07-25.02 16.85-24.61 16.58-24.17 16.31-23.73 16.11-23.32 15.92-22.9 15.92-22.71L15.92-22.71Q15.58-22.31 15.53-21.83L15.53-21.83Q14.21-19.34 13.18-16.72 12.16-14.11 10.99-11.57L10.99-11.57Q10.89-11.13 10.86-11.04 10.84-10.94 10.74-10.89L10.74-10.89Q10.6-10.55 10.4-10.23 10.21-9.91 10.11-9.57L10.11-9.57Q9.91-9.03 9.79-8.57 9.67-8.11 9.33-7.62L9.33-7.62Q9.28-7.32 9.13-7.06 8.98-6.79 9.03-6.49L9.03-6.49Q9.18-6.35 9.5-6.32 9.81-6.3 10.01-6.3L10.01-6.3Q10.3-6.3 10.6-6.32 10.89-6.35 11.18-6.35L11.18-6.35Q11.47-6.35 11.72-6.32 11.96-6.3 12.21-6.3L12.21-6.3 13.43-6.3Q13.62-6.3 13.79-6.27 13.96-6.25 14.11-6.25L14.11-6.25Q14.65-6.25 15.26-6.3 15.87-6.35 16.46-6.35L16.46-6.35Q16.8-6.35 17.19-6.37 17.58-6.4 17.97-6.3L17.97-6.3Q18.12-6.25 18.19-6.15 18.26-6.05 18.51-6.15L18.51-6.15Q18.95-5.71 19.04-5.62 19.14-5.52 19.24-5.42L19.24-5.42Q19.24-5.22 19.26-5.1 19.29-4.98 19.29-4.83L19.29-4.83Q19.29-4.3 19.38-4.1L19.38-4.1Q19.09-3.66 19.19-3.47L19.19-3.47 18.95-2.93Q18.95-2.69 18.85-2.42 18.75-2.15 18.85-1.9L18.85-1.9Q18.6-1.51 18.53-1.05 18.46-0.59 18.21-0.2L18.21-0.2Q17.82-0.05 17.43-0.07 17.04-0.1 16.65 0L16.65 0Q16.41-0.1 15.97-0.1L15.97-0.1Q15.58-0.1 15.21-0.05 14.84 0 14.45 0L14.45 0Q14.31 0 14.16-0.02 14.01-0.05 13.87-0.05L13.87-0.05Q13.33 0.05 13.31 0 13.28-0.05 13.18-0.05L13.18-0.05Q12.65-0.05 12.11-0.02 11.57 0 11.04 0L11.04 0Q10.84 0 10.69 0.05 10.55 0.1 10.4 0.1L10.4 0.1Q10.25 0.1 10.11 0.05 9.96 0 9.81 0L9.81 0Q9.57 0 9.28 0.05 8.98 0.1 8.69 0.1L8.69 0.1Q8.54 0.1 8.4 0.07 8.25 0.05 8.11 0.05L8.11 0.05Q7.86 0.05 7.62 0.15 7.37 0.24 7.08 0.15L7.08 0.15 6.4 0.24Q5.62 0.24 4.86 0.34 4.1 0.44 3.32 0.44L3.32 0.44Q2.88 0.44 2.73 0.39L2.73 0.39Q2.49 0.2 2.15 0.15 1.81 0.1 1.51-0.05L1.51-0.05Q1.46-0.44 1.17-0.63 0.88-0.83 0.63-1.07L0.63-1.07Q0.68-1.66 0.54-1.81L0.54-1.81Q0.59-2.59 0.24-2.83L0.24-2.83Q0.29-3.27 0.59-3.66 0.88-4.05 0.93-4.49L0.93-4.49Q1.32-4.88 1.42-5.08 1.51-5.27 1.51-5.52L1.51-5.52Q1.81-5.86 2.08-6.37 2.34-6.88 2.59-7.47 2.83-8.06 3.03-8.62 3.22-9.18 3.37-9.62L3.37-9.62Q3.76-10.16 3.96-10.74 4.15-11.33 4.39-11.91L4.39-11.91Q4.79-12.6 4.91-12.92 5.03-13.23 5.27-13.48L5.27-13.48Q5.32-13.67 5.54-14.23 5.76-14.79 6.01-15.43 6.25-16.06 6.52-16.58 6.79-17.09 6.88-17.24L6.88-17.24Q6.93-17.48 7.08-17.72 7.23-17.97 7.23-18.21L7.23-18.21Q7.71-18.85 8.01-19.78 8.3-20.7 8.64-21.39L8.64-21.39Q8.98-22.12 9.38-22.83 9.77-23.54 10.16-24.27L10.16-24.27Q11.67-27.2 13.18-30.18L13.18-30.18Q13.09-30.42 12.77-30.42 12.45-30.42 12.26-30.57L12.26-30.57Q11.87-30.47 11.52-30.52 11.18-30.57 10.79-30.57L10.79-30.57Q9.86-30.76 9.25-30.74 8.64-30.71 8.06-30.71L8.06-30.71Q7.76-30.71 7.45-30.76 7.13-30.81 6.84-30.81L6.84-30.81Q6.1-30.81 5.35-30.71 4.59-30.62 3.91-30.47L3.91-30.47Q3.47-30.57 3-30.57 2.54-30.57 2.15-30.66L2.15-30.66Q1.95-31.4 2.05-31.49L2.05-31.49Q1.95-31.64 1.83-31.76 1.71-31.88 1.61-32.03L1.61-32.03Q1.66-32.47 1.54-32.59 1.42-32.71 1.32-32.96L1.32-32.96Q1.32-33.3 1.29-33.62 1.27-33.94 1.37-34.28L1.37-34.28Q1.27-34.47 1.12-34.59 0.98-34.72 0.88-34.86L0.88-34.86Q0.93-35.11 0.9-35.28 0.88-35.45 0.93-35.64L0.93-35.64Q1.22-35.89 1.56-36.01 1.9-36.13 2.1-36.43L2.1-36.43Q2.73-36.62 3.39-36.67 4.05-36.72 4.69-36.72L4.69-36.72Q5.37-36.72 5.98-36.69 6.59-36.67 7.18-36.62L7.18-36.62Q7.62-36.62 7.98-36.5 8.35-36.38 8.74-36.33L8.74-36.33Q8.98-36.28 9.23-36.3 9.47-36.33 9.72-36.33L9.72-36.33Q10.55-36.33 11.4-36.3 12.26-36.28 13.09-36.28L13.09-36.28Q13.77-36.28 14.36-36.28 14.94-36.28 15.53-36.38L15.53-36.38Q15.72-36.57 15.82-36.77 15.92-36.96 16.02-37.16L16.02-37.16Q16.46-37.16 16.6-37.13 16.75-37.11 16.85-37.11L16.85-37.11 17.43-36.87Q17.63-36.87 17.87-36.94 18.12-37.01 18.16-37.26ZM47.95-19.38L47.95-19.38Q47.85-19.19 47.75-19.02 47.65-18.85 47.6-18.65L47.6-18.65Q47.8-18.46 47.97-18.24 48.14-18.02 48.14-17.77L48.14-17.77Q48.14-17.58 48.07-17.41 48-17.24 48.04-17.09L48.04-17.09Q47.85-16.75 47.63-16.46 47.41-16.16 47.31-15.82L47.31-15.82Q47.12-15.63 46.99-15.43 46.87-15.23 46.77-15.04L46.77-15.04Q46.53-14.94 46.46-14.72 46.38-14.5 46.19-14.36L46.19-14.36Q46.14-14.16 45.7-13.43 45.26-12.7 44.72-11.87 44.19-11.04 43.7-10.25 43.21-9.47 43.02-9.23L43.02-9.23Q42.92-8.98 42.8-8.84 42.67-8.69 42.53-8.5L42.53-8.5Q42.43-8.35 42.38-8.18 42.33-8.01 42.23-7.91L42.23-7.91Q42.14-7.71 42.01-7.57 41.89-7.42 41.79-7.18L41.79-7.18Q41.31-6.54 40.82-5.66 40.33-4.79 39.89-4.1L39.89-4.1Q39.65-3.71 39.43-3.32 39.21-2.93 38.96-2.54L38.96-2.54Q38.72-2.15 38.47-1.81 38.23-1.46 37.99-1.07L37.99-1.07Q37.6-0.78 37.3-0.37 37.01 0.05 36.62 0.34L36.62 0.34Q35.98 0.34 35.84-0.24L35.84-0.24Q35.2-0.39 35.2-0.24 35.2-0.1 35.2 0L35.2 0Q35.01 0.1 34.93 0.29 34.86 0.49 34.67 0.59L34.67 0.59Q34.27 0.49 34.01 0.27 33.74 0.05 33.25 0.1L33.25 0.1Q33.05-0.2 32.81-0.42 32.57-0.63 32.37-0.88L32.37-0.88Q32.27-1.17 32.1-1.37 31.93-1.56 31.78-1.76L31.78-1.76Q31.64-2 31.49-2.2 31.35-2.39 31.2-2.59L31.2-2.59Q30.86-3.03 30.54-3.44 30.22-3.86 29.98-4.3L29.98-4.3Q29.59-4.88 29.22-5.49 28.85-6.1 28.46-6.69L28.46-6.69Q28.27-6.98 28.07-7.28 27.88-7.57 27.73-7.86L27.73-7.86Q27.63-8.11 27.46-8.45 27.29-8.79 27.05-8.89L27.05-8.89Q26.95-9.28 26.71-9.47 26.46-9.67 26.22-9.96L26.22-9.96Q25.88-10.35 25.58-10.82 25.29-11.28 25-11.77L25-11.77Q24.02-13.13 23.17-14.45 22.31-15.77 21.48-17.19L21.48-17.19Q21.73-17.97 21.73-18.36 21.73-18.75 21.97-18.99L21.97-18.99Q21.97-19.19 22.07-19.58L22.07-19.58Q22.7-20.65 23.29-21.53L23.29-21.53Q23.83-22.36 24.05-22.9 24.27-23.44 24.51-24.02L24.51-24.02Q24.75-24.17 24.9-24.39 25.05-24.61 25.29-24.8L25.29-24.8Q25.39-25.34 25.73-25.71 26.07-26.07 26.17-26.61L26.17-26.61Q26.61-26.95 26.66-27.39L26.66-27.39Q27.29-27.83 27.44-28.56L27.44-28.56Q27.83-28.96 28.1-29.44 28.37-29.93 28.61-30.47L28.61-30.47Q29.2-30.96 29.54-31.74L29.54-31.74Q29.83-31.93 29.98-32.28 30.12-32.62 30.37-32.86L30.37-32.86Q30.76-33.5 30.98-33.91 31.2-34.33 31.44-34.77L31.44-34.77Q31.78-34.77 31.88-35.01 31.98-35.25 32.27-35.21L32.27-35.21Q32.27-35.64 32.52-35.99L32.52-35.99Q32.61-36.04 32.81-36.11 33.01-36.18 33.01-36.28L33.01-36.28Q32.91-36.87 33.05-36.96 33.2-37.06 33.3-37.16L33.3-37.16Q33.84-37.06 34.03-37.01 34.23-36.96 34.67-36.67L34.67-36.67Q35.15-36.67 35.35-36.47 35.54-36.28 35.79-36.18L35.79-36.18Q35.98-35.99 36.11-35.79 36.23-35.6 36.47-35.5L36.47-35.5Q36.86-34.96 37.3-34.33 37.74-33.69 38.13-33.15L38.13-33.15Q38.67-32.42 39.23-31.76 39.79-31.1 40.28-30.32L40.28-30.32Q40.43-30.08 40.82-29.47 41.21-28.86 41.7-28.17 42.19-27.49 42.58-26.93 42.97-26.37 43.11-26.27L43.11-26.27Q43.26-26.03 43.75-25.34 44.24-24.66 44.8-23.9 45.36-23.14 45.9-22.46 46.43-21.78 46.63-21.58L46.63-21.58Q47.17-20.85 47.43-20.39 47.7-19.92 47.95-19.38ZM36.77-10.21L36.77-10.21Q37.3-10.94 37.6-11.52 37.89-12.11 38.18-12.7L38.18-12.7Q38.67-13.28 38.77-13.53 38.86-13.77 39.01-14.01L39.01-14.01Q39.4-14.6 39.82-15.19 40.23-15.77 40.48-16.46L40.48-16.46Q40.77-16.65 40.92-16.94 41.06-17.24 41.35-17.48L41.35-17.48Q41.06-18.51 40.67-19.07 40.28-19.63 39.89-20.17L39.89-20.17Q39.74-20.41 39.6-20.65 39.45-20.9 39.3-21.14L39.3-21.14Q39.11-21.29 38.99-21.44 38.86-21.58 38.72-21.73L38.72-21.73Q38.62-21.97 38.43-22.36L38.43-22.36Q38.23-22.61 38.03-22.8 37.84-23 37.69-23.29L37.69-23.29Q37.5-23.49 37.2-23.83 36.91-24.17 36.59-24.58 36.28-25 36.03-25.37 35.79-25.73 35.64-25.98L35.64-25.98Q35.54-26.22 35.47-26.39 35.4-26.56 35.3-26.76L35.3-26.76Q35.06-27.1 34.81-27.37 34.57-27.64 34.32-27.98L34.32-27.98Q34.18-27.88 34.06-27.86 33.93-27.83 33.84-27.73L33.84-27.73Q33.49-27.1 33.08-26.56 32.66-26.03 32.27-25.39L32.27-25.39Q31.93-24.8 31.59-24.19 31.25-23.58 30.91-23L30.91-23Q30.66-22.66 30.44-22.34 30.22-22.02 29.98-21.63L29.98-21.63Q29.73-21.29 29.56-20.92 29.39-20.56 29.15-20.21L29.15-20.21Q28.76-19.73 28.51-19.34 28.27-18.95 28.02-18.41L28.02-18.41Q28.17-18.12 28.49-17.6 28.81-17.09 29.15-16.58 29.49-16.06 29.76-15.63 30.03-15.19 30.08-15.04L30.08-15.04Q30.47-14.7 30.71-14.28 30.95-13.87 31.35-13.48L31.35-13.48Q31.54-13.09 31.78-12.79 32.03-12.5 32.27-12.16L32.27-12.16Q32.52-11.82 32.91-11.16 33.3-10.5 33.69-9.81 34.08-9.13 34.47-8.54 34.86-7.96 35.1-7.81L35.1-7.81Q35.59-8.35 35.91-9.01 36.23-9.67 36.77-10.21ZM74.6-19.38L74.6-19.38Q74.51-19.19 74.41-19.02 74.31-18.85 74.26-18.65L74.26-18.65Q74.46-18.46 74.63-18.24 74.8-18.02 74.8-17.77L74.8-17.77Q74.8-17.58 74.73-17.41 74.65-17.24 74.7-17.09L74.7-17.09Q74.51-16.75 74.29-16.46 74.07-16.16 73.97-15.82L73.97-15.82Q73.77-15.63 73.65-15.43 73.53-15.23 73.43-15.04L73.43-15.04Q73.19-14.94 73.12-14.72 73.04-14.5 72.85-14.36L72.85-14.36Q72.8-14.16 72.36-13.43 71.92-12.7 71.38-11.87 70.84-11.04 70.36-10.25 69.87-9.47 69.67-9.23L69.67-9.23Q69.58-8.98 69.45-8.84 69.33-8.69 69.18-8.5L69.18-8.5Q69.09-8.35 69.04-8.18 68.99-8.01 68.89-7.91L68.89-7.91Q68.79-7.71 68.67-7.57 68.55-7.42 68.45-7.18L68.45-7.18Q67.96-6.54 67.48-5.66 66.99-4.79 66.55-4.1L66.55-4.1Q66.3-3.71 66.08-3.32 65.86-2.93 65.62-2.54L65.62-2.54Q65.38-2.15 65.13-1.81 64.89-1.46 64.64-1.07L64.64-1.07Q64.25-0.78 63.96-0.37 63.67 0.05 63.28 0.34L63.28 0.34Q62.64 0.34 62.5-0.24L62.5-0.24Q61.86-0.39 61.86-0.24 61.86-0.1 61.86 0L61.86 0Q61.66 0.1 61.59 0.29 61.52 0.49 61.32 0.59L61.32 0.59Q60.93 0.49 60.66 0.27 60.4 0.05 59.91 0.1L59.91 0.1Q59.71-0.2 59.47-0.42 59.22-0.63 59.03-0.88L59.03-0.88Q58.93-1.17 58.76-1.37 58.59-1.56 58.44-1.76L58.44-1.76Q58.3-2 58.15-2.2 58-2.39 57.86-2.59L57.86-2.59Q57.51-3.03 57.2-3.44 56.88-3.86 56.64-4.3L56.64-4.3Q56.25-4.88 55.88-5.49 55.51-6.1 55.12-6.69L55.12-6.69Q54.93-6.98 54.73-7.28 54.54-7.57 54.39-7.86L54.39-7.86Q54.29-8.11 54.12-8.45 53.95-8.79 53.71-8.89L53.71-8.89Q53.61-9.28 53.36-9.47 53.12-9.67 52.88-9.96L52.88-9.96Q52.53-10.35 52.24-10.82 51.95-11.28 51.66-11.77L51.66-11.77Q50.68-13.13 49.82-14.45 48.97-15.77 48.14-17.19L48.14-17.19Q48.38-17.97 48.38-18.36 48.38-18.75 48.63-18.99L48.63-18.99Q48.63-19.19 48.73-19.58L48.73-19.58Q49.36-20.65 49.95-21.53L49.95-21.53Q50.48-22.36 50.7-22.9 50.92-23.44 51.17-24.02L51.17-24.02Q51.41-24.17 51.56-24.39 51.7-24.61 51.95-24.8L51.95-24.8Q52.05-25.34 52.39-25.71 52.73-26.07 52.83-26.61L52.83-26.61Q53.27-26.95 53.32-27.39L53.32-27.39Q53.95-27.83 54.1-28.56L54.1-28.56Q54.49-28.96 54.76-29.44 55.02-29.93 55.27-30.47L55.27-30.47Q55.85-30.96 56.2-31.74L56.2-31.74Q56.49-31.93 56.64-32.28 56.78-32.62 57.03-32.86L57.03-32.86Q57.42-33.5 57.64-33.91 57.86-34.33 58.1-34.77L58.1-34.77Q58.44-34.77 58.54-35.01 58.64-35.25 58.93-35.21L58.93-35.21Q58.93-35.64 59.17-35.99L59.17-35.99Q59.27-36.04 59.47-36.11 59.66-36.18 59.66-36.28L59.66-36.28Q59.57-36.87 59.71-36.96 59.86-37.06 59.96-37.16L59.96-37.16Q60.49-37.06 60.69-37.01 60.88-36.96 61.32-36.67L61.32-36.67Q61.81-36.67 62.01-36.47 62.2-36.28 62.45-36.18L62.45-36.18Q62.64-35.99 62.76-35.79 62.89-35.6 63.13-35.5L63.13-35.5Q63.52-34.96 63.96-34.33 64.4-33.69 64.79-33.15L64.79-33.15Q65.33-32.42 65.89-31.76 66.45-31.1 66.94-30.32L66.94-30.32Q67.08-30.08 67.48-29.47 67.87-28.86 68.35-28.17 68.84-27.49 69.23-26.93 69.62-26.37 69.77-26.27L69.77-26.27Q69.92-26.03 70.41-25.34 70.89-24.66 71.45-23.9 72.02-23.14 72.55-22.46 73.09-21.78 73.29-21.58L73.29-21.58Q73.82-20.85 74.09-20.39 74.36-19.92 74.6-19.38ZM63.42-10.21L63.42-10.21Q63.96-10.94 64.25-11.52 64.55-12.11 64.84-12.7L64.84-12.7Q65.33-13.28 65.42-13.53 65.52-13.77 65.67-14.01L65.67-14.01Q66.06-14.6 66.47-15.19 66.89-15.77 67.13-16.46L67.13-16.46Q67.43-16.65 67.57-16.94 67.72-17.24 68.01-17.48L68.01-17.48Q67.72-18.51 67.33-19.07 66.94-19.63 66.55-20.17L66.55-20.17Q66.4-20.41 66.25-20.65 66.11-20.9 65.96-21.14L65.96-21.14Q65.77-21.29 65.64-21.44 65.52-21.58 65.38-21.73L65.38-21.73Q65.28-21.97 65.08-22.36L65.08-22.36Q64.89-22.61 64.69-22.8 64.5-23 64.35-23.29L64.35-23.29Q64.16-23.49 63.86-23.83 63.57-24.17 63.25-24.58 62.93-25 62.69-25.37 62.45-25.73 62.3-25.98L62.3-25.98Q62.2-26.22 62.13-26.39 62.06-26.56 61.96-26.76L61.96-26.76Q61.71-27.1 61.47-27.37 61.23-27.64 60.98-27.98L60.98-27.98Q60.83-27.88 60.71-27.86 60.59-27.83 60.49-27.73L60.49-27.73Q60.15-27.1 59.74-26.56 59.32-26.03 58.93-25.39L58.93-25.39Q58.59-24.8 58.25-24.19 57.91-23.58 57.56-23L57.56-23Q57.32-22.66 57.1-22.34 56.88-22.02 56.64-21.63L56.64-21.63Q56.39-21.29 56.22-20.92 56.05-20.56 55.81-20.21L55.81-20.21Q55.41-19.73 55.17-19.34 54.93-18.95 54.68-18.41L54.68-18.41Q54.83-18.12 55.15-17.6 55.46-17.09 55.81-16.58 56.15-16.06 56.42-15.63 56.68-15.19 56.73-15.04L56.73-15.04Q57.12-14.7 57.37-14.28 57.61-13.87 58-13.48L58-13.48Q58.2-13.09 58.44-12.79 58.69-12.5 58.93-12.16L58.93-12.16Q59.17-11.82 59.57-11.16 59.96-10.5 60.35-9.81 60.74-9.13 61.13-8.54 61.52-7.96 61.76-7.81L61.76-7.81Q62.25-8.35 62.57-9.01 62.89-9.67 63.42-10.21ZM96.04-18.36L96.04-18.36Q96.28-17.87 96.31-17.72 96.33-17.58 96.28-17.48L96.28-17.48Q96.18-17.04 96.28-16.89L96.28-16.89 96.14-16.06Q96.04-15.63 96.23-15.43L96.23-15.43Q96.14-15.14 96.14-14.87 96.14-14.6 96.04-14.36L96.04-14.36Q95.16-14.31 94.74-14.36 94.33-14.4 93.94-14.4L93.94-14.4Q92.91-14.4 91.86-14.43 90.81-14.45 89.79-14.6L89.79-14.6Q87.64-14.7 85.88-14.7L85.88-14.7Q85.05-14.75 84.25-14.79 83.44-14.84 82.66-14.84L82.66-14.84Q81.63-14.94 80.85-14.97 80.07-14.99 79.39-14.99L79.39-14.99Q79-14.99 78.58-14.94 78.17-14.89 77.68-14.89L77.68-14.89Q77.19-14.89 76.73-14.92 76.26-14.94 75.72-14.94L75.72-14.94Q75.63-15.28 75.68-15.48 75.72-15.67 75.72-15.97L75.72-15.97Q75.53-16.31 75.48-16.65 75.43-16.99 75.43-17.33L75.43-17.33Q75.43-17.58 75.46-17.87 75.48-18.16 75.53-18.41L75.53-18.41Q75.43-18.55 75.36-18.7 75.29-18.85 75.29-18.95L75.29-18.95Q75.38-19.34 75.43-19.48L75.43-19.48Q75.58-19.58 75.75-19.65 75.92-19.73 76.02-19.87L76.02-19.87Q76.95-20.02 77.92-20 78.9-19.97 79.83-19.97L79.83-19.97Q80.61-19.97 81.34-19.92 82.07-19.87 82.85-19.82L82.85-19.82Q83.78-19.73 84.73-19.73 85.69-19.73 86.66-19.73L86.66-19.73Q87.54-19.73 88.44-19.63 89.35-19.53 90.18-19.53L90.18-19.53Q93.01-19.53 95.94-19.24L95.94-19.24Q96.04-18.65 96.04-18.36ZM119.72-34.91L119.72-34.91Q119.62-34.72 119.64-34.52 119.67-34.33 119.67-34.08L119.67-34.08Q119.57-33.5 119.67-33.5 119.77-33.5 119.77-33.4L119.77-33.4 119.42-32.91Q119.42-32.62 119.3-32.37 119.18-32.13 119.23-31.79L119.23-31.79Q119.08-31.54 118.96-31.3 118.84-31.05 118.59-30.81L118.59-30.81 117.96-30.81Q117.42-30.81 116.81-30.74 116.2-30.66 115.62-30.66L115.62-30.66Q115.52-30.66 115.37-30.69 115.22-30.71 115.08-30.71L115.08-30.71Q114.98-30.71 114.83-30.69 114.69-30.66 114.49-30.66L114.49-30.66Q113.76-30.66 113.05-30.74 112.34-30.81 111.56-30.81L111.56-30.81Q111.37-30.81 111.17-30.81 110.98-30.81 110.73-30.76L110.73-30.76Q110.68-29.93 110.66-29.08 110.63-28.22 110.63-27.34L110.63-27.34Q110.63-27.1 110.59-26.83 110.54-26.56 110.54-26.32L110.54-26.32Q110.49-25.68 110.46-25.1 110.44-24.51 110.44-23.88L110.44-23.88Q110.44-22.51 110.46-21.14 110.49-19.78 110.54-18.36L110.54-18.36Q110.59-17.63 110.63-16.94 110.68-16.26 110.68-15.53L110.68-15.53Q110.68-13.87 110.63-12.23 110.59-10.6 110.59-8.94L110.59-8.94Q110.59-8.4 110.54-7.93 110.49-7.47 110.49-6.93L110.49-6.93Q110.49-5.81 110.54-4.69 110.59-3.56 110.59-2.44L110.59-2.44Q110.59-1.9 110.56-1.37 110.54-0.83 110.54-0.29L110.54-0.29Q110.29 0.1 110.2 0.39 110.1 0.68 109.61 0.68L109.61 0.68Q109.27 0.59 109.29 0.46 109.32 0.34 109.22 0.24L109.22 0.24Q108.78 0.2 108.56 0.32 108.34 0.44 108.05 0.54L108.05 0.54Q107.9 0.49 107.73 0.49 107.56 0.49 107.41 0.49L107.41 0.49Q107.31 0.49 107.22 0.56 107.12 0.63 106.78 0.63L106.78 0.63Q106.48 0.68 106.44 0.54 106.39 0.39 106.14 0.39L106.14 0.39Q105.9 0.54 105.58 0.61 105.26 0.68 104.97 0.68L104.97 0.68Q104.68 0.49 104.7 0.32 104.73 0.15 104.63-0.05L104.63-0.05Q104.58-0.15 104.46-0.32 104.34-0.49 104.24-0.59L104.24-0.59Q104.34-1.27 104.38-1.81 104.43-2.34 104.43-2.98L104.43-2.98Q104.43-4.25 104.34-5.47 104.24-6.69 104.24-7.96L104.24-7.96Q104.24-8.35 104.34-8.79 104.43-9.23 104.43-9.72L104.43-9.72Q104.34-10.11 104.38-10.18 104.43-10.25 104.43-10.35L104.43-10.35Q104.43-10.64 104.41-10.94 104.38-11.23 104.38-11.52L104.38-11.52Q104.38-12.11 104.41-12.7 104.43-13.28 104.43-13.87L104.43-13.87Q104.43-14.11 104.41-14.38 104.38-14.65 104.38-14.89L104.38-14.89Q104.34-15.33 104.36-15.82 104.38-16.31 104.38-16.8L104.38-16.8Q104.38-19.14 104.31-21.44 104.24-23.73 104.24-26.07L104.24-26.07Q104.24-27.2 104.36-28.37 104.48-29.54 104.48-30.71L104.48-30.71Q104.48-30.86 104.38-31.1 104.29-31.35 104.19-31.45L104.19-31.45Q103.95-31.45 103.73-31.47 103.51-31.49 103.26-31.49L103.26-31.49Q102.72-31.49 102.24-31.35L102.24-31.35Q101.31-31.3 100.45-31.23 99.6-31.15 98.72-31.1L98.72-31.1Q98.13-31.15 98.01-31.13 97.89-31.1 97.74-31.1L97.74-31.1Q97.35-31.1 97.16-31.3L97.16-31.3 97.16-31.93Q96.87-32.52 96.91-32.57 96.96-32.62 96.96-32.71L96.96-32.71Q96.96-32.86 96.69-33.03 96.43-33.2 96.43-33.59L96.43-33.59Q96.38-33.98 96.23-34.18 96.08-34.38 96.08-34.57L96.08-34.57Q96.08-34.91 96.23-35.35L96.23-35.35Q96.67-35.6 97.08-35.69 97.5-35.79 98.04-35.94L98.04-35.94Q98.33-36.04 98.57-36.13 98.82-36.23 99.11-36.28L99.11-36.28Q99.45-36.33 99.79-36.33 100.14-36.33 100.48-36.38L100.48-36.38Q101.21-36.52 102.02-36.62 102.82-36.72 103.55-36.72L103.55-36.72Q104.24-36.72 104.92-36.55 105.61-36.38 106.14-36.38L106.14-36.38Q106.92-36.38 107.63-36.28 108.34-36.18 109.12-36.18L109.12-36.18Q109.22-36.18 109.44-36.11 109.66-36.04 109.95-36.04L109.95-36.04 114.69-36.04Q115.08-35.94 115.25-35.99 115.42-36.04 115.57-36.04L115.57-36.04Q115.96-36.04 116.3-35.99 116.64-35.94 117.03-35.94L117.03-35.94Q117.37-35.94 117.57-35.99L117.57-35.99Q117.96-35.94 118.3-35.77 118.64-35.6 119.08-35.6L119.08-35.6Q119.28-35.45 119.37-35.23 119.47-35.01 119.72-34.91ZM143.98-4.69L143.98-4.69Q143.93-3.96 144.3-3.59 144.67-3.22 144.91-2.69L144.91-2.69Q144.81-2 145.06-1.61L145.06-1.61Q144.91-1.32 144.76-0.95 144.62-0.59 144.32-0.34L144.32-0.34Q143.54 0 143.4 0.24 143.25 0.49 142.81 0.49L142.81 0.49Q142.57 0.73 142.27 1 141.98 1.27 141.74 1.51L141.74 1.51Q141.49 1.42 141.39 1.27 141.3 1.12 141.1 0.88L141.1 0.88Q140.61 0.73 140.22 0.37 139.83 0 139.54-0.46 139.25-0.93 138.98-1.44 138.71-1.95 138.51-2.39L138.51-2.39Q137.83-3.66 137.12-4.96 136.41-6.25 135.68-7.52L135.68-7.52Q135.29-8.15 134.92-8.81 134.56-9.47 134.17-10.16L134.17-10.16Q134.07-10.25 133.97-10.38 133.87-10.5 133.78-10.64L133.78-10.64Q133.43-11.13 133.26-11.74 133.09-12.35 132.56-12.74L132.56-12.74Q131.63-12.84 130.87-12.48 130.11-12.11 129.53-11.52L129.53-11.52Q129.58-11.18 129.58-10.89 129.58-10.6 129.58-10.3L129.58-10.3Q129.58-9.18 129.48-8.15 129.38-7.13 129.38-6.01L129.38-6.01Q129.38-5.52 129.43-5 129.48-4.49 129.58-4L129.58-4Q129.43-3.47 129.43-2.83L129.43-2.83Q129.43-2.49 129.5-2.2 129.58-1.9 129.58-1.56L129.58-1.56Q129.58-1.07 129.26-0.9 128.94-0.73 129.04-0.29L129.04-0.29Q128.45-0.05 127.92 0.2 127.38 0.44 126.79 0.54L126.79 0.54Q126.55 0.59 126.31 0.56 126.06 0.54 125.87 0.63L125.87 0.63Q125.62 0.73 125.48 1 125.33 1.27 125.09 1.27L125.09 1.27Q124.79 1.27 124.74 1.05 124.69 0.83 124.55 0.68L124.55 0.68Q124.3 0.59 124.16 0.59 124.01 0.59 123.86 0.44L123.86 0.44Q123.91 0 123.67-0.22 123.43-0.44 123.43-1.12L123.43-1.12Q123.43-1.66 123.5-2.15 123.57-2.64 123.57-3.17L123.57-3.17Q123.57-3.61 123.45-3.98 123.33-4.35 123.23-4.79L123.23-4.79Q123.18-4.98 123.23-5.18 123.28-5.37 123.28-5.57L123.28-5.57Q123.28-6.45 123.21-7.35 123.13-8.25 123.13-9.13L123.13-9.13Q123.13-9.47 123.13-9.77 123.13-10.06 123.18-10.35L123.18-10.35Q123.28-10.64 123.35-10.84 123.43-11.04 123.43-11.33L123.43-11.33Q123.43-12.26 123.23-13.16 123.03-14.06 123.03-14.94L123.03-14.94Q123.03-15.43 123.06-15.94 123.08-16.46 123.08-16.94L123.08-16.94Q123.08-18.36 123.03-19.73 122.99-21.09 122.99-22.46L122.99-22.46Q122.99-23.44 123.03-24.39 123.08-25.34 123.08-26.32L123.08-26.32Q123.08-27.54 122.99-28.74 122.89-29.93 122.89-31.2L122.89-31.2Q122.89-31.64 122.84-31.79 122.79-31.93 122.69-31.96 122.59-31.98 122.47-32.01 122.35-32.03 122.25-32.18L122.25-32.18Q122.25-32.47 122.5-32.59 122.74-32.71 122.74-33.4L122.74-33.4Q122.74-33.79 122.67-34.18 122.59-34.57 122.59-34.96L122.59-34.96Q122.59-35.55 122.84-36.13 123.08-36.72 123.28-37.26L123.28-37.26Q123.86-37.3 124.08-37.26 124.3-37.21 124.55-37.3L124.55-37.3Q124.69-36.77 125.18-36.74 125.67-36.72 126.06-36.62L126.06-36.62Q126.5-36.57 126.92-36.4 127.33-36.23 127.72-36.23L127.72-36.23Q127.82-35.94 128.14-35.82 128.45-35.69 128.8-35.6L128.8-35.6Q129.19-35.64 129.41-35.94 129.63-36.23 130.02-36.23L130.02-36.23Q130.31-36.23 130.7-35.82 131.09-35.4 131.29-35.16L131.29-35.16Q131.48-35.01 132.02-34.52 132.56-34.03 133.19-33.52 133.83-33.01 134.36-32.54 134.9-32.08 135.05-32.03L135.05-32.03Q137.05-30.03 138.78-28.39 140.51-26.76 142.57-25.44L142.57-25.44Q142.61-25.29 142.69-25.2 142.76-25.1 142.86-24.95L142.86-24.95Q142.86-24.56 142.71-24.37 142.57-24.17 142.57-23.88L142.57-23.88Q142.57-23.73 142.64-23.58 142.71-23.44 142.71-23.29L142.71-23.29Q142.76-23.1 142.74-22.92 142.71-22.75 142.71-22.56L142.71-22.56Q142.71-22.07 143.03-21.68 143.35-21.29 143.35-20.8L143.35-20.8Q143.25-20.36 142.96-20.26 142.66-20.17 142.47-20.02L142.47-20.02Q142.37-19.92 142.3-19.78 142.22-19.63 142.13-19.53L142.13-19.53Q141.05-19.04 140.56-18.63 140.08-18.21 139.54-17.82L139.54-17.82Q139.39-17.72 139.05-17.5 138.71-17.29 138.37-17.07 138.02-16.85 137.76-16.6 137.49-16.36 137.49-16.21L137.49-16.21Q137.49-15.87 137.9-15.26 138.32-14.65 138.51-14.31L138.51-14.31Q139.05-13.43 139.49-12.57 139.93-11.72 140.47-10.89L140.47-10.89Q141.44-9.38 142.3-7.81 143.15-6.25 143.98-4.69ZM136.02-22.85L136.02-22.85Q134.9-24.27 133.61-25.42 132.31-26.56 131.14-27.83L131.14-27.83 130.6-27.93Q130.31-28.42 129.94-28.78 129.58-29.15 129.19-29.54L129.19-29.54Q129.24-29 129.24-28.52 129.24-28.03 129.24-27.49L129.24-27.49Q129.24-25.93 129.16-24.44 129.09-22.95 129.09-21.44L129.09-21.44Q129.09-19.92 129.24-18.55L129.24-18.55Q130.26-18.55 131.09-19.14L131.09-19.14Q131.43-19.38 131.73-19.65 132.02-19.92 132.36-20.17L132.36-20.17Q132.75-20.41 133.26-20.75 133.78-21.09 134.29-21.44 134.8-21.78 135.27-22.14 135.73-22.51 136.02-22.85ZM171.27-19.38L171.27-19.38Q171.18-19.19 171.08-19.02 170.98-18.85 170.93-18.65L170.93-18.65Q171.13-18.46 171.3-18.24 171.47-18.02 171.47-17.77L171.47-17.77Q171.47-17.58 171.4-17.41 171.32-17.24 171.37-17.09L171.37-17.09Q171.18-16.75 170.96-16.46 170.74-16.16 170.64-15.82L170.64-15.82Q170.44-15.63 170.32-15.43 170.2-15.23 170.1-15.04L170.1-15.04Q169.86-14.94 169.78-14.72 169.71-14.5 169.52-14.36L169.52-14.36Q169.47-14.16 169.03-13.43 168.59-12.7 168.05-11.87 167.51-11.04 167.03-10.25 166.54-9.47 166.34-9.23L166.34-9.23Q166.24-8.98 166.12-8.84 166-8.69 165.85-8.5L165.85-8.5Q165.76-8.35 165.71-8.18 165.66-8.01 165.56-7.91L165.56-7.91Q165.46-7.71 165.34-7.57 165.22-7.42 165.12-7.18L165.12-7.18Q164.63-6.54 164.15-5.66 163.66-4.79 163.22-4.1L163.22-4.1Q162.97-3.71 162.75-3.32 162.53-2.93 162.29-2.54L162.29-2.54Q162.05-2.15 161.8-1.81 161.56-1.46 161.31-1.07L161.31-1.07Q160.92-0.78 160.63-0.37 160.34 0.05 159.95 0.34L159.95 0.34Q159.31 0.34 159.16-0.24L159.16-0.24Q158.53-0.39 158.53-0.24 158.53-0.1 158.53 0L158.53 0Q158.33 0.1 158.26 0.29 158.19 0.49 157.99 0.59L157.99 0.59Q157.6 0.49 157.33 0.27 157.07 0.05 156.58 0.1L156.58 0.1Q156.38-0.2 156.14-0.42 155.89-0.63 155.7-0.88L155.7-0.88Q155.6-1.17 155.43-1.37 155.26-1.56 155.11-1.76L155.11-1.76Q154.97-2 154.82-2.2 154.67-2.39 154.53-2.59L154.53-2.59Q154.18-3.03 153.87-3.44 153.55-3.86 153.31-4.3L153.31-4.3Q152.91-4.88 152.55-5.49 152.18-6.1 151.79-6.69L151.79-6.69Q151.6-6.98 151.4-7.28 151.21-7.57 151.06-7.86L151.06-7.86Q150.96-8.11 150.79-8.45 150.62-8.79 150.38-8.89L150.38-8.89Q150.28-9.28 150.03-9.47 149.79-9.67 149.55-9.96L149.55-9.96Q149.2-10.35 148.91-10.82 148.62-11.28 148.32-11.77L148.32-11.77Q147.35-13.13 146.49-14.45 145.64-15.77 144.81-17.19L144.81-17.19Q145.05-17.97 145.05-18.36 145.05-18.75 145.3-18.99L145.3-18.99Q145.3-19.19 145.4-19.58L145.4-19.58Q146.03-20.65 146.62-21.53L146.62-21.53Q147.15-22.36 147.37-22.9 147.59-23.44 147.84-24.02L147.84-24.02Q148.08-24.17 148.23-24.39 148.37-24.61 148.62-24.8L148.62-24.8Q148.72-25.34 149.06-25.71 149.4-26.07 149.5-26.61L149.5-26.61Q149.94-26.95 149.99-27.39L149.99-27.39Q150.62-27.83 150.77-28.56L150.77-28.56Q151.16-28.96 151.43-29.44 151.69-29.93 151.94-30.47L151.94-30.47Q152.52-30.96 152.87-31.74L152.87-31.74Q153.16-31.93 153.31-32.28 153.45-32.62 153.7-32.86L153.7-32.86Q154.09-33.5 154.31-33.91 154.53-34.33 154.77-34.77L154.77-34.77Q155.11-34.77 155.21-35.01 155.31-35.25 155.6-35.21L155.6-35.21Q155.6-35.64 155.84-35.99L155.84-35.99Q155.94-36.04 156.14-36.11 156.33-36.18 156.33-36.28L156.33-36.28Q156.24-36.87 156.38-36.96 156.53-37.06 156.63-37.16L156.63-37.16Q157.16-37.06 157.36-37.01 157.55-36.96 157.99-36.67L157.99-36.67Q158.48-36.67 158.68-36.47 158.87-36.28 159.12-36.18L159.12-36.18Q159.31-35.99 159.43-35.79 159.56-35.6 159.8-35.5L159.8-35.5Q160.19-34.96 160.63-34.33 161.07-33.69 161.46-33.15L161.46-33.15Q162-32.42 162.56-31.76 163.12-31.1 163.61-30.32L163.61-30.32Q163.75-30.08 164.15-29.47 164.54-28.86 165.02-28.17 165.51-27.49 165.9-26.93 166.29-26.37 166.44-26.27L166.44-26.27Q166.59-26.03 167.07-25.34 167.56-24.66 168.12-23.9 168.69-23.14 169.22-22.46 169.76-21.78 169.96-21.58L169.96-21.58Q170.49-20.85 170.76-20.39 171.03-19.92 171.27-19.38ZM160.09-10.21L160.09-10.21Q160.63-10.94 160.92-11.52 161.22-12.11 161.51-12.7L161.51-12.7Q162-13.28 162.09-13.53 162.19-13.77 162.34-14.01L162.34-14.01Q162.73-14.6 163.14-15.19 163.56-15.77 163.8-16.46L163.8-16.46Q164.1-16.65 164.24-16.94 164.39-17.24 164.68-17.48L164.68-17.48Q164.39-18.51 164-19.07 163.61-19.63 163.22-20.17L163.22-20.17Q163.07-20.41 162.92-20.65 162.78-20.9 162.63-21.14L162.63-21.14Q162.44-21.29 162.31-21.44 162.19-21.58 162.05-21.73L162.05-21.73Q161.95-21.97 161.75-22.36L161.75-22.36Q161.56-22.61 161.36-22.8 161.17-23 161.02-23.29L161.02-23.29Q160.82-23.49 160.53-23.83 160.24-24.17 159.92-24.58 159.6-25 159.36-25.37 159.12-25.73 158.97-25.98L158.97-25.98Q158.87-26.22 158.8-26.39 158.73-26.56 158.63-26.76L158.63-26.76Q158.38-27.1 158.14-27.37 157.9-27.64 157.65-27.98L157.65-27.98Q157.5-27.88 157.38-27.86 157.26-27.83 157.16-27.73L157.16-27.73Q156.82-27.1 156.41-26.56 155.99-26.03 155.6-25.39L155.6-25.39Q155.26-24.8 154.92-24.19 154.57-23.58 154.23-23L154.23-23Q153.99-22.66 153.77-22.34 153.55-22.02 153.31-21.63L153.31-21.63Q153.06-21.29 152.89-20.92 152.72-20.56 152.48-20.21L152.48-20.21Q152.08-19.73 151.84-19.34 151.6-18.95 151.35-18.41L151.35-18.41Q151.5-18.12 151.82-17.6 152.13-17.09 152.48-16.58 152.82-16.06 153.09-15.63 153.35-15.19 153.4-15.04L153.4-15.04Q153.79-14.7 154.04-14.28 154.28-13.87 154.67-13.48L154.67-13.48Q154.87-13.09 155.11-12.79 155.36-12.5 155.6-12.16L155.6-12.16Q155.84-11.82 156.24-11.16 156.63-10.5 157.02-9.81 157.41-9.13 157.8-8.54 158.19-7.96 158.43-7.81L158.43-7.81Q158.92-8.35 159.24-9.01 159.56-9.67 160.09-10.21ZM178.4-35.5L178.4-35.5Q178.6-35.55 178.74-35.64 178.89-35.74 179.08-35.74L179.08-35.74Q179.23-35.69 179.3-35.55 179.38-35.4 179.52-35.3L179.52-35.3Q179.67-35.4 179.79-35.5 179.91-35.6 180.06-35.64L180.06-35.64Q180.55-35.5 180.6-35.16L180.6-35.16Q180.84-35.06 181.04-34.94 181.23-34.81 181.48-34.77L181.48-34.77Q181.57-34.57 181.72-34.47 181.87-34.38 182.06-34.18L182.06-34.18Q182.55-34.08 183.36-33.64 184.16-33.2 184.65-32.96L184.65-32.96Q185.14-32.71 185.63-32.47 186.12-32.23 186.55-31.93L186.55-31.93Q186.99-31.69 187.43-31.37 187.87-31.05 188.36-30.86L188.36-30.86Q188.8-30.32 189.48-30.18 190.17-30.03 190.71-29.64L190.71-29.64Q191.14-29.39 191.54-29.13 191.93-28.86 192.32-28.61L192.32-28.61Q192.46-28.37 192.68-28.22 192.9-28.08 193.1-27.83L193.1-27.83Q194.07-27.29 194.22-27L194.22-27Q194.37-26.9 194.66-26.71 194.95-26.51 195.25-26.29 195.54-26.07 195.78-25.85 196.03-25.63 196.08-25.44L196.08-25.44Q195.88-25 195.88-24.73 195.88-24.46 195.69-24.27L195.69-24.27Q195.98-23.88 195.98-23.54L195.98-23.54Q195.73-22.95 195.15-22.56L195.15-22.56Q195-22.17 194.68-21.95 194.37-21.73 194.27-21.34L194.27-21.34Q193.88-21.09 193.81-20.95 193.73-20.8 193.63-20.65L193.63-20.65Q192.71-19.68 191.9-18.97 191.1-18.26 190.41-17.43L190.41-17.43Q189.92-17.19 189.58-16.82 189.24-16.46 188.95-16.02L188.95-16.02Q188.56-15.63 188.19-15.26 187.82-14.89 187.43-14.55L187.43-14.55Q187.34-14.36 187.12-14.23 186.9-14.11 186.8-13.87L186.8-13.87Q186.26-13.62 185.92-13.18 185.58-12.74 185.09-12.45L185.09-12.45 184.75-11.96Q184.6-11.87 184.33-11.65 184.06-11.43 183.8-11.16 183.53-10.89 183.33-10.64 183.14-10.4 183.09-10.25L183.09-10.25Q182.94-10.21 182.62-9.96 182.31-9.72 181.99-9.42 181.67-9.13 181.4-8.84 181.13-8.54 181.09-8.45L181.09-8.45 180.6-8.11Q180.65-6.79 180.67-5.44 180.7-4.1 180.7-2.78L180.7-2.78 180.7-1.12 180.35-0.68Q180.11-0.68 179.96-0.78 179.82-0.88 179.62-0.88L179.62-0.88Q179.43-0.88 179.25-0.68 179.08-0.49 178.94-0.39L178.94-0.39Q178.6-0.34 178.38-0.22 178.16-0.1 177.91 0L177.91 0Q177.62-0.15 177.33-0.15L177.33-0.15Q176.69 0 176.72-0.1 176.74-0.2 176.5-0.2L176.5-0.2Q176.11 0.2 176.01 0.2L176.01 0.2Q175.81 0.2 175.64 0.24 175.47 0.29 175.28 0.29L175.28 0.29Q175.08-0.1 174.96-0.51 174.84-0.93 174.49-1.32L174.49-1.32Q174.64-1.81 174.45-2L174.45-2Q174.74-2.54 174.69-3.22 174.64-3.91 174.64-4.49L174.64-4.49Q174.64-4.83 174.67-5.15 174.69-5.47 174.69-5.76L174.69-5.76Q174.69-6.35 174.59-6.96 174.49-7.57 174.49-8.2L174.49-8.2Q174.49-9.67 174.59-11.16 174.69-12.65 174.69-14.11L174.69-14.11Q174.69-14.94 174.62-15.82 174.54-16.7 174.54-17.53L174.54-17.53Q174.54-18.07 174.59-18.53 174.64-18.99 174.69-19.43L174.69-19.43Q174.69-21.68 174.76-23.75 174.84-25.83 174.84-27.88L174.84-27.88Q174.84-28.56 174.81-29.17 174.79-29.79 174.79-30.47L174.79-30.47Q174.79-30.81 174.84-31.15 174.88-31.49 174.88-31.84L174.88-31.84Q175.03-33.35 175.03-34.86L175.03-34.86 174.98-35.64Q175.18-35.94 175.57-35.94L175.57-35.94Q176.11-35.94 176.4-35.6L176.4-35.6Q176.74-35.64 177.06-35.72 177.38-35.79 177.67-35.79L177.67-35.79Q178.11-35.79 178.4-35.5ZM181.38-27.88L181.28-27.73Q181.28-27.49 181.23-27.37 181.18-27.25 181.13-27.15L181.13-27.15Q181.13-27 181.16-26.83 181.18-26.66 181.18-26.46L181.18-26.46Q181.18-25.34 181.16-24.24 181.13-23.14 181.13-22.07L181.13-22.07 181.04-19.48Q181.04-19.24 181.09-18.95 181.13-18.65 181.13-18.41L181.13-18.41Q181.13-18.16 181.09-17.92 181.04-17.68 181.04-17.43L181.04-17.43Q181.04-16.8 181.18-16.16L181.18-16.16Q181.43-16.26 181.53-16.48 181.62-16.7 181.77-16.85L181.77-16.85Q182.89-17.87 183.87-18.99 184.85-20.12 185.87-21.24L185.87-21.24Q186.75-22.17 187.38-22.75 188.02-23.34 188.36-24.17L188.36-24.17Q187.53-24.71 186.65-25.27 185.77-25.83 184.8-26.22L184.8-26.22Q184.75-26.32 184.53-26.46 184.31-26.61 184.06-26.73 183.82-26.86 183.58-26.95 183.33-27.05 183.23-27.05L183.23-27.05Q182.8-27.44 182.31-27.54L182.31-27.54Q181.96-27.54 181.72-27.66 181.48-27.78 181.38-27.88L181.38-27.88ZM222.29-19.38L222.29-19.38Q222.2-19.19 222.1-19.02 222-18.85 221.95-18.65L221.95-18.65Q222.15-18.46 222.32-18.24 222.49-18.02 222.49-17.77L222.49-17.77Q222.49-17.58 222.42-17.41 222.34-17.24 222.39-17.09L222.39-17.09Q222.2-16.75 221.98-16.46 221.76-16.16 221.66-15.82L221.66-15.82Q221.46-15.63 221.34-15.43 221.22-15.23 221.12-15.04L221.12-15.04Q220.88-14.94 220.81-14.72 220.73-14.5 220.54-14.36L220.54-14.36Q220.49-14.16 220.05-13.43 219.61-12.7 219.07-11.87 218.53-11.04 218.05-10.25 217.56-9.47 217.36-9.23L217.36-9.23Q217.27-8.98 217.14-8.84 217.02-8.69 216.87-8.5L216.87-8.5Q216.78-8.35 216.73-8.18 216.68-8.01 216.58-7.91L216.58-7.91Q216.48-7.71 216.36-7.57 216.24-7.42 216.14-7.18L216.14-7.18Q215.65-6.54 215.17-5.66 214.68-4.79 214.24-4.1L214.24-4.1Q213.99-3.71 213.77-3.32 213.55-2.93 213.31-2.54L213.31-2.54Q213.07-2.15 212.82-1.81 212.58-1.46 212.33-1.07L212.33-1.07Q211.94-0.78 211.65-0.37 211.36 0.05 210.97 0.34L210.97 0.34Q210.33 0.34 210.19-0.24L210.19-0.24Q209.55-0.39 209.55-0.24 209.55-0.1 209.55 0L209.55 0Q209.36 0.1 209.28 0.29 209.21 0.49 209.01 0.59L209.01 0.59Q208.62 0.49 208.35 0.27 208.09 0.05 207.6 0.1L207.6 0.1Q207.4-0.2 207.16-0.42 206.91-0.63 206.72-0.88L206.72-0.88Q206.62-1.17 206.45-1.37 206.28-1.56 206.13-1.76L206.13-1.76Q205.99-2 205.84-2.2 205.69-2.39 205.55-2.59L205.55-2.59Q205.2-3.03 204.89-3.44 204.57-3.86 204.33-4.3L204.33-4.3Q203.94-4.88 203.57-5.49 203.2-6.1 202.81-6.69L202.81-6.69Q202.62-6.98 202.42-7.28 202.23-7.57 202.08-7.86L202.08-7.86Q201.98-8.11 201.81-8.45 201.64-8.79 201.4-8.89L201.4-8.89Q201.3-9.28 201.05-9.47 200.81-9.67 200.57-9.96L200.57-9.96Q200.22-10.35 199.93-10.82 199.64-11.28 199.35-11.77L199.35-11.77Q198.37-13.13 197.51-14.45 196.66-15.77 195.83-17.19L195.83-17.19Q196.07-17.97 196.07-18.36 196.07-18.75 196.32-18.99L196.32-18.99Q196.32-19.19 196.42-19.58L196.42-19.58Q197.05-20.65 197.64-21.53L197.64-21.53Q198.17-22.36 198.39-22.9 198.61-23.44 198.86-24.02L198.86-24.02Q199.1-24.17 199.25-24.39 199.39-24.61 199.64-24.8L199.64-24.8Q199.74-25.34 200.08-25.71 200.42-26.07 200.52-26.61L200.52-26.61Q200.96-26.95 201.01-27.39L201.01-27.39Q201.64-27.83 201.79-28.56L201.79-28.56Q202.18-28.96 202.45-29.44 202.71-29.93 202.96-30.47L202.96-30.47Q203.54-30.96 203.89-31.74L203.89-31.74Q204.18-31.93 204.33-32.28 204.47-32.62 204.72-32.86L204.72-32.86Q205.11-33.5 205.33-33.91 205.55-34.33 205.79-34.77L205.79-34.77Q206.13-34.77 206.23-35.01 206.33-35.25 206.62-35.21L206.62-35.21Q206.62-35.64 206.86-35.99L206.86-35.99Q206.96-36.04 207.16-36.11 207.35-36.18 207.35-36.28L207.35-36.28Q207.26-36.87 207.4-36.96 207.55-37.06 207.65-37.16L207.65-37.16Q208.18-37.06 208.38-37.01 208.57-36.96 209.01-36.67L209.01-36.67Q209.5-36.67 209.7-36.47 209.89-36.28 210.14-36.18L210.14-36.18Q210.33-35.99 210.45-35.79 210.58-35.6 210.82-35.5L210.82-35.5Q211.21-34.96 211.65-34.33 212.09-33.69 212.48-33.15L212.48-33.15Q213.02-32.42 213.58-31.76 214.14-31.1 214.63-30.32L214.63-30.32Q214.77-30.08 215.17-29.47 215.56-28.86 216.04-28.17 216.53-27.49 216.92-26.93 217.31-26.37 217.46-26.27L217.46-26.27Q217.61-26.03 218.1-25.34 218.58-24.66 219.15-23.9 219.71-23.14 220.24-22.46 220.78-21.78 220.98-21.58L220.98-21.58Q221.51-20.85 221.78-20.39 222.05-19.92 222.29-19.38ZM211.11-10.21L211.11-10.21Q211.65-10.94 211.94-11.52 212.24-12.11 212.53-12.7L212.53-12.7Q213.02-13.28 213.11-13.53 213.21-13.77 213.36-14.01L213.36-14.01Q213.75-14.6 214.16-15.19 214.58-15.77 214.82-16.46L214.82-16.46Q215.12-16.65 215.26-16.94 215.41-17.24 215.7-17.48L215.7-17.48Q215.41-18.51 215.02-19.07 214.63-19.63 214.24-20.17L214.24-20.17Q214.09-20.41 213.94-20.65 213.8-20.9 213.65-21.14L213.65-21.14Q213.46-21.29 213.33-21.44 213.21-21.58 213.07-21.73L213.07-21.73Q212.97-21.97 212.77-22.36L212.77-22.36Q212.58-22.61 212.38-22.8 212.19-23 212.04-23.29L212.04-23.29Q211.85-23.49 211.55-23.83 211.26-24.17 210.94-24.58 210.62-25 210.38-25.37 210.14-25.73 209.99-25.98L209.99-25.98Q209.89-26.22 209.82-26.39 209.75-26.56 209.65-26.76L209.65-26.76Q209.4-27.1 209.16-27.37 208.92-27.64 208.67-27.98L208.67-27.98Q208.52-27.88 208.4-27.86 208.28-27.83 208.18-27.73L208.18-27.73Q207.84-27.1 207.43-26.56 207.01-26.03 206.62-25.39L206.62-25.39Q206.28-24.8 205.94-24.19 205.6-23.58 205.25-23L205.25-23Q205.01-22.66 204.79-22.34 204.57-22.02 204.33-21.63L204.33-21.63Q204.08-21.29 203.91-20.92 203.74-20.56 203.5-20.21L203.5-20.21Q203.11-19.73 202.86-19.34 202.62-18.95 202.37-18.41L202.37-18.41Q202.52-18.12 202.84-17.6 203.15-17.09 203.5-16.58 203.84-16.06 204.11-15.63 204.37-15.19 204.42-15.04L204.42-15.04Q204.81-14.7 205.06-14.28 205.3-13.87 205.69-13.48L205.69-13.48Q205.89-13.09 206.13-12.79 206.38-12.5 206.62-12.16L206.62-12.16Q206.86-11.82 207.26-11.16 207.65-10.5 208.04-9.81 208.43-9.13 208.82-8.54 209.21-7.96 209.45-7.81L209.45-7.81Q209.94-8.35 210.26-9.01 210.58-9.67 211.11-10.21ZM243.83-8.35L243.83-8.35Q244.17-7.91 244.24-7.64 244.31-7.37 244.41-7.1 244.51-6.84 244.58-6.59 244.66-6.35 244.66-6.3L244.66-6.3Q244.66-5.96 244.53-5.74 244.41-5.52 244.17-5.18L244.17-5.18Q242.21-4.44 240.31-3.74 238.41-3.03 236.4-2.34L236.4-2.34Q235.87-2.2 235.43-2.03 234.99-1.86 234.45-1.76L234.45-1.76Q234.35-1.66 234.13-1.59 233.91-1.51 233.62-1.42 233.33-1.32 233.06-1.25 232.79-1.17 232.69-1.17L232.69-1.17Q232.3-1.07 231.84-1.1 231.37-1.12 230.93-1.07L230.93-1.07Q230.69-1.03 230.59-0.83 230.5-0.63 230.37-0.42 230.25-0.2 230.01-0.02 229.76 0.15 229.32 0.15L229.32 0.15Q228.88 0.15 228.44 0.1 228 0.05 227.52-0.15L227.52-0.15Q227.42-0.29 227.44-0.51 227.47-0.73 227.37-0.88L227.37-0.88Q226.93-0.93 226.69-0.81 226.44-0.68 226.2-0.63L226.2-0.63Q226.05-0.83 225.98-1.1 225.91-1.37 225.71-1.56L225.71-1.56Q225.66-1.81 225.66-2.05 225.66-2.29 225.66-2.54L225.66-2.54Q225.66-2.88 225.69-3.34 225.71-3.81 225.86-4.05L225.86-4.05Q226-6.84 226-9.62 226-12.4 226-15.19L226-15.19Q226-15.48 226-15.94 226-16.41 225.98-16.89 225.95-17.38 225.93-17.8 225.91-18.21 225.86-18.41L225.86-18.41Q225.91-18.75 225.91-19.07 225.91-19.38 225.91-19.73L225.91-19.73Q225.91-20.02 225.91-20.26 225.91-20.51 225.81-20.75L225.81-20.75Q225.86-20.95 225.86-21.29L225.86-21.29Q225.86-21.53 225.81-21.78 225.76-22.02 225.76-22.27L225.76-22.27Q225.76-22.66 225.78-23.02 225.81-23.39 225.81-23.78L225.81-23.78Q225.81-25.05 225.69-26.29 225.56-27.54 225.56-28.81L225.56-28.81Q225.56-30.47 225.54-32.13 225.51-33.79 225.47-35.45L225.47-35.45Q225.66-35.94 225.66-36.28L225.66-36.28Q226.34-36.62 226.74-36.52 227.13-36.43 227.52-36.43L227.52-36.43Q227.76-36.43 227.96-36.47 228.15-36.52 228.35-36.62L228.35-36.62Q228.59-36.57 228.76-36.5 228.93-36.43 229.18-36.43L229.18-36.43Q229.91-36.57 229.98-36.47 230.06-36.38 230.2-36.28L230.2-36.28Q230.4-36.33 230.52-36.45 230.64-36.57 230.84-36.57L230.84-36.57Q231.13-36.57 231.28-36.21 231.42-35.84 231.62-35.6L231.62-35.6Q231.62-35.06 231.81-34.62L231.81-34.62Q231.91-32.62 231.89-30.66 231.86-28.71 232.01-26.76L232.01-26.76Q232.06-25.88 232.13-24.93 232.2-23.97 232.2-23.1L232.2-23.1Q232.2-21.63 232.23-20.14 232.25-18.65 232.25-17.14L232.25-17.14Q232.25-16.89 232.28-16.7 232.3-16.5 232.3-16.26L232.3-16.26Q232.3-15.67 232.25-15.14 232.2-14.6 232.2-14.06L232.2-14.06 232.2-10.25Q232.2-9.77 232.18-9.25 232.16-8.74 232.2-8.25L232.2-8.25 232.4-7.67Q232.94-7.86 233.5-8.08 234.06-8.3 234.69-8.4L234.69-8.4Q235.08-8.5 235.43-8.59 235.77-8.69 236.16-8.79L236.16-8.79Q236.84-9.18 237.23-9.33 237.62-9.47 238.01-9.62L238.01-9.62Q238.84-9.91 239.63-10.23 240.41-10.55 241.24-10.84L241.24-10.84Q241.63-10.74 241.87-10.94L241.87-10.94Q242.36-10.84 242.75-10.84L242.75-10.84Q243.29-10.3 243.41-10.01 243.53-9.72 243.78-9.47L243.78-9.47Q243.68-9.23 243.8-9.18 243.92-9.13 243.97-8.94L243.97-8.94Q244.17-8.84 244.02-8.67 243.87-8.5 243.83-8.35ZM255.1-33.2L255.1-33.2Q255.1-32.76 254.81-32.54 254.52-32.32 254.27-31.98L254.27-31.98Q253.78-31.54 253.42-31.08 253.05-30.62 252.56-30.18L252.56-30.18Q252.37-29.98 252.03-29.66 251.68-29.35 251.32-29.03 250.95-28.71 250.59-28.47 250.22-28.22 249.98-28.22L249.98-28.22Q249.58-28.22 248.97-28.49 248.36-28.76 247.92-28.86L247.92-28.86Q247.58-28.91 247.31-28.93 247.05-28.96 246.8-29.2L246.8-29.2Q245.92-29.39 245.68-29.81 245.43-30.22 245.14-30.66L245.14-30.66Q245.14-30.86 245.29-30.91 245.43-30.96 245.53-31.1L245.53-31.1Q246.02-31.74 246.36-32.15 246.7-32.57 247.14-33.01L247.14-33.01Q247.97-33.74 248.73-34.52 249.49-35.3 250.32-35.99L250.32-35.99Q250.71-36.04 250.9-36.28 251.1-36.52 251.49-36.52L251.49-36.52Q251.88-36.52 252.15-36.28 252.42-36.04 252.64-35.72 252.86-35.4 253.08-35.08 253.3-34.77 253.59-34.62L253.59-34.62Q253.93-34.38 254.52-33.98 255.1-33.59 255.1-33.2ZM248.41-24.12L248.41-24.12Q248.75-23.93 248.93-23.61 249.1-23.29 249.44-23.14L249.44-23.14Q249.73-23 250.07-23 250.41-23 250.66-22.9L250.66-22.9Q250.85-22.8 250.95-22.66 251.05-22.51 251.15-22.36L251.15-22.36Q251.44-22.12 252.05-21.92 252.66-21.73 252.86-21.48L252.86-21.48Q253.2-21.04 253.37-20.36 253.54-19.68 253.64-18.92 253.73-18.16 253.78-17.41 253.83-16.65 253.93-16.11L253.93-16.11Q254.03-14.99 254.17-13.89 254.32-12.79 254.32-11.67L254.32-11.67Q254.32-10.55 254.22-9.38 254.13-8.2 254.13-7.08L254.13-7.08Q254.13-6.49 254.1-5.62 254.08-4.74 253.69-4.25L253.69-4.25Q253.64-4.05 253.64-3.56L253.64-3.56 253.64-2Q253.64-1.71 253.69-1.42 253.73-1.12 253.73-0.78L253.73-0.78Q253.73-0.24 253.44 0L253.44 0Q253.3-0.05 253.12-0.05 252.95-0.05 252.81-0.05L252.81-0.05Q252.27-0.05 252.03 0.15L252.03 0.15Q251.49 0.1 251 0.05 250.51 0 249.98 0L249.98 0Q249.14 0 248.17 0.24L248.17 0.24Q247.97-0.24 248-0.78 248.02-1.32 247.78-1.76L247.78-1.76Q247.73-1.9 247.7-2.03 247.68-2.15 247.68-2.29L247.68-2.29Q247.83-2.88 247.83-3.1 247.83-3.32 247.83-3.56L247.83-3.56Q247.83-4.25 247.78-4.96 247.73-5.66 247.83-6.35L247.83-6.35Q247.83-6.59 247.9-6.79 247.97-6.98 247.97-7.23L247.97-7.23Q247.97-7.47 247.88-7.57 247.78-7.67 247.78-7.81L247.78-7.81Q247.78-7.96 247.8-8.3 247.83-8.64 247.92-8.74L247.92-8.74Q247.92-9.13 247.95-9.5 247.97-9.86 247.97-10.21L247.97-10.21Q247.97-10.99 247.92-11.77 247.88-12.55 247.88-13.28L247.88-13.28Q247.88-13.62 247.83-13.72 247.78-13.82 247.73-13.87 247.68-13.92 247.58-13.94 247.48-13.96 247.44-14.11L247.44-14.11Q247.63-16.26 247.29-18.41 246.95-20.56 246.95-22.75L246.95-22.75Q246.95-23.1 247.05-23.27 247.14-23.44 247.29-23.54 247.44-23.63 247.56-23.75 247.68-23.88 247.73-24.12L247.73-24.12Q248.12-24.02 248.41-24.12ZM269.36-35.99L269.36-35.99Q269.45-35.79 269.58-35.72 269.7-35.64 269.75-35.4L269.75-35.4Q270.09-35.16 270.29-35.03 270.48-34.91 270.53-34.62L270.53-34.62Q270.97-34.28 271.04-34.18 271.12-34.08 271.16-33.94L271.16-33.94Q271.41-33.74 271.63-33.59 271.85-33.45 271.95-33.15L271.95-33.15Q272.34-32.81 272.43-32.62 272.53-32.42 272.58-32.18L272.58-32.18Q272.38-31.84 271.8-31.25 271.21-30.66 270.48-30 269.75-29.35 269.06-28.74 268.38-28.13 267.99-27.78L267.99-27.78Q267.89-27.59 267.75-27.44 267.6-27.29 267.5-27.1L267.5-27.1Q267.21-26.86 266.96-26.59 266.72-26.32 266.38-26.17L266.38-26.17Q265.89-25.49 265.01-24.83 264.13-24.17 263.84-23.54L263.84-23.54Q263.89-23.39 264.06-23.24 264.23-23.1 264.33-23L264.33-23Q264.72-22.61 265.26-22.29 265.79-21.97 266.18-21.58L266.18-21.58Q266.57-21.24 266.96-20.92 267.36-20.61 267.75-20.26L267.75-20.26Q267.94-20.07 268.23-19.68L268.23-19.68Q268.72-19.29 269.19-18.97 269.65-18.65 270.09-18.26L270.09-18.26Q271.02-17.48 271.9-16.67 272.78-15.87 273.75-15.09L273.75-15.09 274.14-14.65Q274.14-14.26 274.36-13.75 274.58-13.23 274.78-12.89L274.78-12.89Q274.68-12.4 274.8-12.28 274.92-12.16 275.02-12.06L275.02-12.06Q274.97-11.13 275.07-10.84L275.07-10.84Q274.24-10.11 273.53-9.5 272.82-8.89 272.29-8.3L272.29-8.3Q271.85-7.76 271.38-7.35 270.92-6.93 270.38-6.45L270.38-6.45Q270.09-6.05 269.89-5.91L269.89-5.91Q269.55-5.57 269.21-5.37L269.21-5.37Q268.62-4.83 268.06-4.35 267.5-3.86 266.96-3.37L266.96-3.37Q266.57-3.03 266.23-2.71 265.89-2.39 265.55-2L265.55-2Q265.26-1.71 264.89-1.32 264.52-0.93 264.13-0.68L264.13-0.68Q263.99-0.39 263.74-0.17 263.5 0.05 263.3 0.29L263.3 0.29Q262.96 0.49 262.67 0.68 262.37 0.88 261.98 1.07L261.98 1.07Q261.59 0.78 261.23 0.54 260.86 0.29 260.42 0.2L260.42 0.2Q260.13-0.05 259.98-0.29 259.84-0.54 259.45-0.63L259.45-0.63Q259.35-0.78 259.23-0.95 259.1-1.12 259.01-1.32L259.01-1.32Q258.42-1.37 258.08-2.05L258.08-2.05Q258.18-2.34 258.35-2.49 258.52-2.64 258.42-3.03L258.42-3.03Q258.71-3.52 259.13-3.88 259.54-4.25 259.93-4.64L259.93-4.64Q260.37-5.03 260.74-5.44 261.11-5.86 261.54-6.25L261.54-6.25Q261.79-6.49 262.03-6.71 262.28-6.93 262.57-7.18L262.57-7.18Q263.11-7.71 263.67-8.18 264.23-8.64 264.82-9.18L264.82-9.18Q265.6-9.96 266.43-10.67 267.26-11.38 267.94-12.26L267.94-12.26Q267.89-12.45 267.79-12.52 267.7-12.6 267.65-12.74L267.65-12.74Q266.87-13.48 266.11-14.18 265.35-14.89 264.47-15.43L264.47-15.43Q264.18-15.72 264.08-15.92L264.08-15.92Q263.2-16.55 262.4-17.33 261.59-18.12 260.62-18.65L260.62-18.65Q260.42-18.9 260.15-19.07 259.88-19.24 259.64-19.38L259.64-19.38Q259.49-19.63 259.32-19.8 259.15-19.97 258.91-20.07L258.91-20.07Q258.52-20.41 258.4-20.63 258.27-20.85 257.98-20.9L257.98-20.9Q257.88-21.14 257.66-21.29 257.44-21.44 257.2-21.63L257.2-21.63Q257.1-21.92 256.91-22.12L256.91-22.12Q256.86-22.51 256.95-22.68 257.05-22.85 257.1-22.95L257.1-22.95Q257.05-23.24 256.83-23.39 256.61-23.54 256.61-23.88L256.61-23.88Q256.61-24.07 256.74-24.15 256.86-24.22 256.91-24.37L256.91-24.37 257.05-25.1Q257.44-25.39 257.71-25.81 257.98-26.22 258.42-26.46L258.42-26.46Q258.91-27.2 259.64-27.69L259.64-27.69Q259.88-28.08 260.25-28.32 260.62-28.56 260.86-28.96L260.86-28.96Q261.25-29.2 261.52-29.49 261.79-29.79 262.18-30.03L262.18-30.03Q262.28-30.22 262.4-30.35 262.52-30.47 262.57-30.62L262.57-30.62Q263.89-31.88 264.89-32.81 265.89-33.74 266.96-34.67L266.96-34.67Q267.26-34.91 267.55-35.21 267.84-35.5 268.19-35.74L268.19-35.74Q268.28-35.84 268.43-35.84 268.58-35.84 268.72-35.94L268.72-35.94Q269.31-35.94 269.36-35.99Z"
                                                                                          opacity="1"
                                                                                          transform="matrix(1,0,0,1,0,0)"
                                                                                          fill="#ffffff"
                                                                                          class="undefined-text-0"
                                                                                          id="text-0"></path>
                                                                                </svg>
                                                                            </g>
                                                                        </svg>
                                                                    </g>
                                                                    <g transform="matrix(1,0,0,1,0,31.073696812933022)">
                                                                        <svg viewBox="0 0 192 16.75813110676852"
                                                                             height="16.75813110676852" width="192">
                                                                            <g transform="matrix(1,0,0,1,0,0)">
                                                                                <svg width="192"
                                                                                     viewBox="3.25 -36.5 534.47 46.65"
                                                                                     height="16.75813110676852"
                                                                                     data-palette-color="#ffffff">
                                                                                    <path d="M16.8 0.6L16.8 0.6Q12.85 0.6 9.8-1.05 6.75-2.7 5-5.78 3.25-8.85 3.25-13.1L3.25-13.1 3.25-35 9.2-35 9.2-12.7Q9.2-10.5 10.13-8.68 11.05-6.85 12.78-5.75 14.5-4.65 16.8-4.65L16.8-4.65Q19.15-4.65 20.88-5.75 22.6-6.85 23.5-8.68 24.4-10.5 24.4-12.7L24.4-12.7 24.4-35 30.4-35 30.4-12.7Q30.4-10.5 31.33-8.68 32.25-6.85 33.95-5.75 35.65-4.65 38-4.65L38-4.65Q40.35-4.65 42.05-5.75 43.75-6.85 44.68-8.68 45.6-10.5 45.6-12.7L45.6-12.7 45.6-35 51.55-35 51.55-13.1Q51.55-8.85 49.8-5.78 48.05-2.7 45-1.05 41.95 0.6 38 0.6L38 0.6Q35.8 0.6 33.77 0 31.75-0.6 30.15-1.85 28.55-3.1 27.4-4.85L27.4-4.85Q26.3-3.1 24.65-1.88 23-0.65 21.03-0.03 19.05 0.6 16.8 0.6ZM67.87 0L62.12 0 62.12-25.5 67.87-25.5 67.87 0ZM64.97-29.05L64.97-29.05Q63.47-29.05 62.37-30.15 61.27-31.25 61.27-32.75L61.27-32.75Q61.27-34.25 62.37-35.35 63.47-36.45 64.97-36.45L64.97-36.45Q66.52-36.45 67.59-35.35 68.67-34.25 68.67-32.75L68.67-32.75Q68.67-31.25 67.59-30.15 66.52-29.05 64.97-29.05ZM84.38 0L78.63 0 78.63-36.5 84.38-36.5 84.38 0ZM107 0.6L107 0.6Q110.9 0.6 113.9-1.05 116.9-2.7 118.57-5.78 120.25-8.85 120.25-13.05L120.25-13.05 120.25-36.5 114.5-36.5 114.5-21.65 114.45-21.65Q113.65-23 112.35-24 111.05-25 109.45-25.55 107.85-26.1 106.05-26.1L106.05-26.1Q102.4-26.1 99.62-24.48 96.85-22.85 95.27-19.95 93.7-17.05 93.7-13.15L93.7-13.15Q93.7-10.1 94.62-7.58 95.55-5.05 97.27-3.2 99-1.35 101.45-0.38 103.9 0.6 107 0.6ZM107-4.3L107-4.3Q104.8-4.3 103.1-5.38 101.4-6.45 100.45-8.35 99.5-10.25 99.5-12.75L99.5-12.75Q99.5-15.2 100.45-17.1 101.4-19 103.07-20.1 104.75-21.2 106.95-21.2L106.95-21.2Q109.15-21.2 110.85-20.13 112.55-19.05 113.5-17.15 114.45-15.25 114.45-12.75L114.45-12.75Q114.45-10.25 113.5-8.35 112.55-6.45 110.85-5.38 109.15-4.3 107-4.3ZM136.56 0L130.81 0 130.81-36.5 136.56-36.5 136.56 0ZM153.08 0L147.33 0 147.33-25.5 153.08-25.5 153.08 0ZM150.18-29.05L150.18-29.05Q148.68-29.05 147.58-30.15 146.48-31.25 146.48-32.75L146.48-32.75Q146.48-34.25 147.58-35.35 148.68-36.45 150.18-36.45L150.18-36.45Q151.73-36.45 152.8-35.35 153.88-34.25 153.88-32.75L153.88-32.75Q153.88-31.25 152.8-30.15 151.73-29.05 150.18-29.05ZM171.19 0L165.44 0 165.44-20.6 160.99-20.6 160.99-25.5 165.44-25.5 165.44-29.25Q165.44-32.65 167.37-34.58 169.29-36.5 172.69-36.5L172.69-36.5 179.49-36.5 179.49-31.6 173.74-31.6Q172.59-31.6 171.89-30.9 171.19-30.2 171.19-29L171.19-29 171.19-25.5 178.44-25.5 178.44-20.6 171.19-20.6 171.19 0ZM205.51 0L198.66 0Q194.36 0 191.13-1.63 187.91-3.25 186.11-6.13 184.31-9 184.31-12.75L184.31-12.75Q184.31-16.7 185.91-19.7 187.51-22.7 190.31-24.4 193.11-26.1 196.76-26.1L196.76-26.1Q200.86-26.1 203.51-24.35 206.16-22.6 207.43-19.65 208.71-16.7 208.71-13.05L208.71-13.05Q208.71-12.55 208.66-11.9 208.61-11.25 208.51-10.9L208.51-10.9 190.41-10.9Q190.71-8.9 191.86-7.58 193.01-6.25 194.76-5.58 196.51-4.9 198.66-4.9L198.66-4.9 205.51-4.9 205.51 0ZM190.36-14.8L190.36-14.8 202.96-14.8Q202.91-15.75 202.68-16.7 202.46-17.65 201.98-18.5 201.51-19.35 200.78-19.98 200.06-20.6 199.06-20.98 198.06-21.35 196.76-21.35L196.76-21.35Q195.26-21.35 194.11-20.78 192.96-20.2 192.16-19.28 191.36-18.35 190.93-17.18 190.51-16 190.36-14.8ZM240.59 0L234.84 0 234.84-18.25Q234.84-21.65 236.76-23.58 238.69-25.5 242.09-25.5L242.09-25.5 248.24-25.5 248.24-20.6 243.14-20.6Q241.94-20.6 241.26-19.9 240.59-19.2 240.59-18L240.59-18 240.59 0ZM275.85 0L269 0Q264.7 0 261.48-1.63 258.25-3.25 256.45-6.13 254.65-9 254.65-12.75L254.65-12.75Q254.65-16.7 256.25-19.7 257.85-22.7 260.65-24.4 263.45-26.1 267.1-26.1L267.1-26.1Q271.2-26.1 273.85-24.35 276.5-22.6 277.78-19.65 279.05-16.7 279.05-13.05L279.05-13.05Q279.05-12.55 279-11.9 278.95-11.25 278.85-10.9L278.85-10.9 260.75-10.9Q261.05-8.9 262.2-7.58 263.35-6.25 265.1-5.58 266.85-4.9 269-4.9L269-4.9 275.85-4.9 275.85 0ZM260.7-14.8L260.7-14.8 273.3-14.8Q273.25-15.75 273.03-16.7 272.8-17.65 272.33-18.5 271.85-19.35 271.13-19.98 270.4-20.6 269.4-20.98 268.4-21.35 267.1-21.35L267.1-21.35Q265.6-21.35 264.45-20.78 263.3-20.2 262.5-19.28 261.7-18.35 261.28-17.18 260.85-16 260.7-14.8ZM294.02 0L288.27 0 288.27-25.5 294.02-25.5 294.02 0ZM291.12-29.05L291.12-29.05Q289.62-29.05 288.52-30.15 287.42-31.25 287.42-32.75L287.42-32.75Q287.42-34.25 288.52-35.35 289.62-36.45 291.12-36.45L291.12-36.45Q292.67-36.45 293.74-35.35 294.82-34.25 294.82-32.75L294.82-32.75Q294.82-31.25 293.74-30.15 292.67-29.05 291.12-29.05ZM310.48 0L304.78 0 304.78-15.25Q304.78-18.2 306.18-20.68 307.58-23.15 310.23-24.63 312.88-26.1 316.58-26.1L316.58-26.1Q318.38-26.1 320.03-25.65 321.68-25.2 323.11-24.23 324.53-23.25 325.53-21.8L325.53-21.8 325.58-21.8Q326.58-23.25 328.01-24.23 329.43-25.2 331.11-25.65 332.78-26.1 334.58-26.1L334.58-26.1Q338.33-26.1 340.96-24.63 343.58-23.15 344.98-20.68 346.38-18.2 346.38-15.25L346.38-15.25 346.38 0 340.68 0 340.68-15.25Q340.68-16.9 339.86-18.25 339.03-19.6 337.68-20.4 336.33-21.2 334.58-21.2L334.58-21.2Q332.88-21.2 331.48-20.4 330.08-19.6 329.26-18.25 328.43-16.9 328.43-15.25L328.43-15.25 328.43 0 322.73 0 322.73-15.25Q322.73-16.9 321.88-18.25 321.03-19.6 319.66-20.4 318.28-21.2 316.58-21.2L316.58-21.2Q314.88-21.2 313.51-20.4 312.13-19.6 311.31-18.25 310.48-16.9 310.48-15.25L310.48-15.25 310.48 0ZM367.5 0.6L367.5 0.6Q363.85 0.6 361.2-1.2 358.55-3 357.12-6.03 355.7-9.05 355.7-12.7L355.7-12.7Q355.7-16.5 357.32-19.53 358.95-22.55 361.97-24.33 365-26.1 369.2-26.1L369.2-26.1Q373.35-26.1 376.27-24.33 379.2-22.55 380.77-19.53 382.35-16.5 382.35-12.8L382.35-12.8 382.35 0 376.6 0 376.6-4.75 376.5-4.75Q375.75-3.35 374.55-2.13 373.35-0.9 371.6-0.15 369.85 0.6 367.5 0.6ZM369.05-4.3L369.05-4.3Q371.3-4.3 372.97-5.43 374.65-6.55 375.6-8.47 376.55-10.4 376.5-12.8L376.5-12.8Q376.5-15.2 375.6-17.07 374.7-18.95 373.05-20.08 371.4-21.2 369.1-21.2L369.1-21.2Q366.7-21.2 365-20.08 363.3-18.95 362.4-17.05 361.5-15.15 361.5-12.75L361.5-12.75Q361.5-10.4 362.4-8.47 363.3-6.55 364.97-5.43 366.65-4.3 369.05-4.3ZM410.81 10.15L396.96 10.15 396.96 5.25 409.76 5.25Q411.06 5.25 411.79 4.45 412.51 3.65 412.51 2.45L412.51 2.45 412.51-4.15 412.46-4.15Q411.36-2.8 410.11-1.83 408.86-0.85 407.29-0.33 405.71 0.2 403.81 0.2L403.81 0.2Q400.31 0.2 397.56-1.45 394.81-3.1 393.24-6.08 391.66-9.05 391.66-12.9L391.66-12.9Q391.66-16.65 393.24-19.63 394.81-22.6 397.76-24.35 400.71-26.1 404.96-26.1L404.96-26.1Q409.01-26.1 411.99-24.4 414.96-22.7 416.61-19.63 418.26-16.55 418.26-12.45L418.26-12.45 418.26 2.7Q418.26 6.15 416.26 8.15 414.26 10.15 410.81 10.15L410.81 10.15ZM404.91-4.7L404.91-4.7Q407.21-4.7 408.89-5.78 410.56-6.85 411.49-8.68 412.41-10.5 412.41-12.75L412.41-12.75Q412.41-15.15 411.51-17.05 410.61-18.95 408.94-20.08 407.26-21.2 404.91-21.2L404.91-21.2Q402.61-21.2 400.94-20.08 399.26-18.95 398.36-17.07 397.46-15.2 397.46-12.85L397.46-12.85Q397.46-10.6 398.36-8.75 399.26-6.9 400.94-5.8 402.61-4.7 404.91-4.7ZM434.58 0L428.83 0 428.83-25.5 434.58-25.5 434.58 0ZM431.68-29.05L431.68-29.05Q430.18-29.05 429.08-30.15 427.98-31.25 427.98-32.75L427.98-32.75Q427.98-34.25 429.08-35.35 430.18-36.45 431.68-36.45L431.68-36.45Q433.23-36.45 434.3-35.35 435.38-34.25 435.38-32.75L435.38-32.75Q435.38-31.25 434.3-30.15 433.23-29.05 431.68-29.05ZM451.09 0L445.34 0 445.34-14.7Q445.34-18 446.84-20.58 448.34-23.15 451.09-24.63 453.84-26.1 457.54-26.1L457.54-26.1Q461.24-26.1 463.97-24.63 466.69-23.15 468.19-20.58 469.69-18 469.69-14.7L469.69-14.7 469.69 0 463.99 0 463.99-14.65Q463.99-16.6 463.09-18.07 462.19-19.55 460.72-20.38 459.24-21.2 457.49-21.2L457.49-21.2Q455.79-21.2 454.32-20.38 452.84-19.55 451.97-18.07 451.09-16.6 451.09-14.65L451.09-14.65 451.09 0ZM500.21 0L493.36 0Q489.06 0 485.83-1.63 482.61-3.25 480.81-6.13 479.01-9 479.01-12.75L479.01-12.75Q479.01-16.7 480.61-19.7 482.21-22.7 485.01-24.4 487.81-26.1 491.46-26.1L491.46-26.1Q495.56-26.1 498.21-24.35 500.86-22.6 502.13-19.65 503.41-16.7 503.41-13.05L503.41-13.05Q503.41-12.55 503.36-11.9 503.31-11.25 503.21-10.9L503.21-10.9 485.11-10.9Q485.41-8.9 486.56-7.58 487.71-6.25 489.46-5.58 491.21-4.9 493.36-4.9L493.36-4.9 500.21-4.9 500.21 0ZM485.06-14.8L485.06-14.8 497.66-14.8Q497.61-15.75 497.38-16.7 497.16-17.65 496.68-18.5 496.21-19.35 495.48-19.98 494.76-20.6 493.76-20.98 492.76-21.35 491.46-21.35L491.46-21.35Q489.96-21.35 488.81-20.78 487.66-20.2 486.86-19.28 486.06-18.35 485.63-17.18 485.21-16 485.06-14.8ZM524.47 0.6L524.47 0.6Q528.37 0.6 531.37-1.05 534.37-2.7 536.05-5.78 537.72-8.85 537.72-13.05L537.72-13.05 537.72-36.5 531.97-36.5 531.97-21.65 531.92-21.65Q531.12-23 529.82-24 528.52-25 526.92-25.55 525.32-26.1 523.52-26.1L523.52-26.1Q519.87-26.1 517.1-24.48 514.32-22.85 512.75-19.95 511.17-17.05 511.17-13.15L511.17-13.15Q511.17-10.1 512.1-7.58 513.02-5.05 514.75-3.2 516.47-1.35 518.92-0.38 521.37 0.6 524.47 0.6ZM524.47-4.3L524.47-4.3Q522.27-4.3 520.57-5.38 518.87-6.45 517.92-8.35 516.97-10.25 516.97-12.75L516.97-12.75Q516.97-15.2 517.92-17.1 518.87-19 520.55-20.1 522.22-21.2 524.42-21.2L524.42-21.2Q526.62-21.2 528.32-20.13 530.02-19.05 530.97-17.15 531.92-15.25 531.92-12.75L531.92-12.75Q531.92-10.25 530.97-8.35 530.02-6.45 528.32-5.38 526.62-4.3 524.47-4.3Z"
                                                                                          opacity="1"
                                                                                          transform="matrix(1,0,0,1,0,0)"
                                                                                          fill="#ffffff"
                                                                                          class="undefined-text-1"
                                                                                          id="text-1"></path>
                                                                                </svg>
                                                                            </g>
                                                                        </svg>
                                                                    </g>
                                                                </svg>
                                                            </g>
                                                        </svg>
                                                    </g>
                                                    <g transform="matrix(1,0,0,1,52.070235923954755,0)">
                                                        <svg viewBox="0 0 87.85952815209049 66.10358618502754"
                                                             height="66.10358618502754" width="87.85952815209049">
                                                            <g>
                                                                <svg xmlns="http://www.w3.org/2000/svg"
                                                                     xmlns:xlink="http://www.w3.org/1999/xlink"
                                                                     version="1.1" x="0" y="0"
                                                                     viewBox="5.00099645853899 16.14243770691411 90.0002423640643 67.7142127088095"
                                                                     enable-background="new 0 0 100 100"
                                                                     xml:space="preserve" height="66.10358618502754"
                                                                     width="87.85952815209049" class="icon-icon-0"
                                                                     data-fill-palette-color="accent" id="icon-0"><g fill="#ffffff"><path fill="#ffffff" d="M92.265 38.032c-5.609-14.9-20.763-22.998-33.627-21.767-19.624 1.877-31.548 9.617-31.548 9.617-5.981-1.604-7.031-1.01-11.026 1.642-2.613 1.733-9.569 11.743-10.201 13.68-1.173 3.599-1.018 2.739-0.313 6.962 1.438 8.627 5.468 17.117 5.468 17.117 0.976 1.51 0.401 6.224 0.085 8.056-0.437 2.52-2.465 7.352-2.388 8.21 0 0 3.573 2.516 4.301 2.035 4.614-3.049 6.567-20.057 7.312-18.924 1.332 2.036 1.367 2.386 3.597 2.505 4.223 0.351 3.05 0 4.223-2.111 1.299-2.342 5.041-5.748 5.041-5.748C38.534 59.12 38.7 78.316 38.7 81.942c0 1.035 0.84 1.877 1.877 1.877 1.845 0 3.786 0.126 5.589-0.083 0.719-0.084 1.963-14.389 2.227-15.842 0.696-3.835 1.683-7.885 6.728-6.594 3.712 0.949 11.374 2.111 11.374 2.111 1.407 2.346 1.938 9.397 2.23 12.824v5.706c0 1.035 0.839 1.877 1.876 1.877h5.63c1.037 0 1.876-0.842 1.876-1.877 0.002-5.124 0.648-10.232 2.879-15.028 1.543-3.316 3.865-6.105 5.201-9.544 1.623-4.18 1.771-12.607 3.413-13.427 1.173 5.001 2.425 11.334 1.126 16.989-0.198 0.851-3.56 9.111-1.245 8.459 3.753-1.054 5.396-12.547 5.515-17.828C95.088 47.372 93.96 42.542 92.265 38.032M17.121 56.61c-2.074 0-3.753-1.681-3.753-3.753 0-2.075 1.679-3.753 3.753-3.753 2.07 0 3.753 1.678 3.753 3.753C20.874 54.93 19.191 56.61 17.121 56.61M30.646 57c-3.694 1.078-2.892-2.426-2.892-2.426 5.63-1.248 6.881-7.347 7.037-11.1 0.155-3.753-0.782-7.975-4.223-7.975-3.439 0-3.565 1.372-4.535 2.032-2.189 1.485-4.108-0.117-3.362-1.254 1.871-2.844 8.271-6.366 11.84-4.61 3.507 1.728 5.283 5.51 5.283 9.302C39.795 48.164 34.399 55.906 30.646 57"></path></g></svg>
                                                            </g>
                                                        </svg>
                                                    </g>
                                                    <g></g>
                                                </svg>
                                            </g>
                                        </svg>
                                    </g>
                                </svg>
                            </g>
                        </svg>
                    </g>
                    <defs></defs>
                </svg>
                <rect width="320" height="360" fill="none" stroke="none" visibility="hidden"></rect>
            </g>
        </svg>
    </g>
</svg>